<svg width="24" height="24" viewBox="0 0 24 24" fill="none" xmlns="http://www.w3.org/2000/svg">
<path d="M12.832 21.801C15.958 21.175 20 18.926 20 13.111C20 7.81999 16.127 4.29599 13.342 2.67699C12.723 2.31699 12 2.78999 12 3.50499V5.33299C12 6.77499 11.394 9.40699 9.71 10.502C8.85 11.061 7.92 10.224 7.816 9.20399L7.73 8.36599C7.63 7.39199 6.638 6.80099 5.86 7.39499C4.461 8.45999 3 10.33 3 13.11C3 20.221 8.289 22 10.933 22C11.0877 22 11.249 21.995 11.417 21.985C10.111 21.874 8 21.064 8 18.444C8 16.394 9.495 15.009 10.631 14.334C10.937 14.154 11.294 14.389 11.294 14.744V15.334C11.294 15.784 11.469 16.489 11.884 16.971C12.354 17.517 13.043 16.945 13.098 16.227C13.116 16.001 13.344 15.857 13.54 15.971C14.181 16.346 15 17.146 15 18.444C15 20.492 13.871 21.434 12.832 21.801Z" fill="#3E3A39"/>
</svg>
