<svg width="215" height="180" viewBox="0 0 215 180" fill="none" xmlns="http://www.w3.org/2000/svg">
<mask id="path-1-inside-1_13_304" fill="white">
<path d="M41.4684 175.878C36.6944 180.821 28.7517 181 24.3926 175.687C13.6222 162.559 6.07553 147.018 2.44775 130.309C-2.06347 109.532 -0.312166 87.8832 7.4802 68.1012C15.2726 48.3191 28.756 31.292 46.2254 19.173C63.6949 7.05404 84.3657 0.387495 105.624 0.016435C126.882 -0.354627 147.773 5.58644 165.655 17.0884C183.537 28.5903 197.606 45.1365 206.084 64.6345C214.562 84.1326 217.068 105.707 213.284 126.629C210.242 143.454 203.242 159.25 192.937 172.745C188.766 178.207 180.822 178.306 175.878 173.532C170.934 168.758 170.887 160.924 174.865 155.32C181.853 145.477 186.628 134.178 188.794 122.2C191.702 106.122 189.776 89.5424 183.261 74.5583C176.746 59.5742 165.933 46.8587 152.191 38.0195C138.45 29.1804 122.395 24.6148 106.058 24.8999C89.7215 25.1851 73.8362 30.3083 60.4111 39.6216C46.986 48.9349 36.6241 62.0201 30.6358 77.2224C24.6474 92.4247 23.3015 109.061 26.7684 125.029C29.351 136.923 34.518 148.049 41.8447 157.642C46.0159 163.104 46.2424 170.934 41.4684 175.878Z"/>
</mask>
<path d="M41.4684 175.878C36.6944 180.821 28.7517 181 24.3926 175.687C13.6222 162.559 6.07553 147.018 2.44775 130.309C-2.06347 109.532 -0.312166 87.8832 7.4802 68.1012C15.2726 48.3191 28.756 31.292 46.2254 19.173C63.6949 7.05404 84.3657 0.387495 105.624 0.016435C126.882 -0.354627 147.773 5.58644 165.655 17.0884C183.537 28.5903 197.606 45.1365 206.084 64.6345C214.562 84.1326 217.068 105.707 213.284 126.629C210.242 143.454 203.242 159.25 192.937 172.745C188.766 178.207 180.822 178.306 175.878 173.532C170.934 168.758 170.887 160.924 174.865 155.32C181.853 145.477 186.628 134.178 188.794 122.2C191.702 106.122 189.776 89.5424 183.261 74.5583C176.746 59.5742 165.933 46.8587 152.191 38.0195C138.45 29.1804 122.395 24.6148 106.058 24.8999C89.7215 25.1851 73.8362 30.3083 60.4111 39.6216C46.986 48.9349 36.6241 62.0201 30.6358 77.2224C24.6474 92.4247 23.3015 109.061 26.7684 125.029C29.351 136.923 34.518 148.049 41.8447 157.642C46.0159 163.104 46.2424 170.934 41.4684 175.878Z" fill="#E5C5B5" stroke="#E5C5B5" stroke-width="6" mask="url(#path-1-inside-1_13_304)"/>
</svg>
