<svg width="5" height="29" viewBox="0 0 5 29" fill="none" xmlns="http://www.w3.org/2000/svg">
<path d="M2.2 21.32C1.88 21.32 1.61333 21.2133 1.4 21C1.21333 20.7866 1.10667 20.4666 1.08 20.04L0.279999 2.11998C0.253332 1.47998 0.399998 0.973313 0.719999 0.599979C1.06667 0.19998 1.56 -2.00272e-05 2.2 -2.00272e-05C2.81333 -2.00272e-05 3.28 0.19998 3.6 0.599979C3.92 0.973313 4.06667 1.47998 4.04 2.11998L3.24 20.04C3.24 20.4666 3.14667 20.7866 2.96 21C2.77333 21.2133 2.52 21.32 2.2 21.32ZM2.2 28.64C1.53333 28.64 0.999999 28.44 0.599999 28.04C0.199999 27.6133 -1.43051e-06 27.08 -1.43051e-06 26.44C-1.43051e-06 25.8 0.199999 25.28 0.599999 24.88C0.999999 24.4533 1.53333 24.24 2.2 24.24C2.86667 24.24 3.38667 24.4533 3.76 24.88C4.16 25.28 4.36 25.8 4.36 26.44C4.36 27.08 4.16 27.6133 3.76 28.04C3.38667 28.44 2.86667 28.64 2.2 28.64Z" fill="black"/>
</svg>
