<svg width="24" height="24" viewBox="0 0 24 24" fill="none" xmlns="http://www.w3.org/2000/svg">
<path d="M6.196 17.485C7.046 16.873 7.948 16.3893 8.902 16.034C9.85534 15.678 10.888 15.5 12 15.5C13.112 15.5 14.1447 15.678 15.098 16.034C16.0513 16.39 16.9533 16.8733 17.804 17.484C18.464 16.8007 18.995 15.994 19.397 15.064C19.799 14.1327 20 13.1113 20 12C20 9.78333 19.221 7.89567 17.663 6.337C16.105 4.77833 14.2173 3.99933 12 4C9.78267 4.00067 7.895 4.78 6.337 6.338C4.779 7.896 4 9.78333 4 12C4 13.1113 4.201 14.1327 4.603 15.064C5.005 15.9947 5.536 16.8013 6.196 17.484M9.868 11.632C9.28933 11.0533 9 10.3427 9 9.5C9 8.65733 9.28933 7.94667 9.868 7.368C10.4467 6.78933 11.1573 6.5 12 6.5C12.8427 6.5 13.5533 6.78933 14.132 7.368C14.7107 7.94667 15 8.65733 15 9.5C15 10.3427 14.7107 11.0533 14.132 11.632C13.5533 12.2107 12.8427 12.5 12 12.5C11.1573 12.5 10.4467 12.2107 9.868 11.632ZM12 21C10.7447 21 9.56967 20.7663 8.475 20.299C7.38034 19.8317 6.42767 19.193 5.617 18.383C4.80633 17.573 4.16767 16.6203 3.701 15.525C3.23433 14.4297 3.00067 13.2547 3 12C2.99933 10.7453 3.233 9.57033 3.701 8.475C4.169 7.37967 4.80767 6.427 5.617 5.617C6.42767 4.807 7.38034 4.16833 8.475 3.701C9.56967 3.23367 10.7447 3 12 3C13.2553 3 14.4303 3.23367 15.525 3.701C16.6197 4.16833 17.5723 4.807 18.383 5.617C19.1937 6.427 19.8323 7.37967 20.299 8.475C20.7657 9.57033 20.9993 10.7453 21 12C21.0007 13.2547 20.767 14.4297 20.299 15.525C19.831 16.6203 19.1923 17.573 18.383 18.383C17.5723 19.193 16.6197 19.8317 15.525 20.299C14.4303 20.7663 13.2553 21 12 21ZM14.721 19.516C15.613 19.194 16.384 18.7527 17.034 18.192C16.3847 17.67 15.633 17.2577 14.779 16.955C13.925 16.6523 12.9987 16.5007 12 16.5C11.0013 16.4993 10.0717 16.6477 9.211 16.945C8.35034 17.2423 7.60167 17.658 6.965 18.192C7.615 18.752 8.38634 19.1933 9.279 19.516C10.1717 19.8387 11.0787 20 12 20C12.9213 20 13.8283 19.8387 14.721 19.516ZM13.421 10.921C13.807 10.535 14 10.0613 14 9.5C14 8.93867 13.807 8.465 13.421 8.079C13.035 7.693 12.5613 7.5 12 7.5C11.4387 7.5 10.965 7.693 10.579 8.079C10.193 8.465 10 8.93867 10 9.5C10 10.0613 10.193 10.535 10.579 10.921C10.965 11.307 11.4387 11.5 12 11.5C12.5613 11.5 13.035 11.307 13.421 10.921Z" fill="#3E3A39"/>
</svg>
