<svg>
    <symbol id="icon-login" viewBox="0 0 24 24" fill="none" xmlns="http://www.w3.org/2000/svg">
        <path d="M11.98 20V19H18.385C18.5384 19 18.6794 18.936 18.808 18.808C18.9367 18.68 19.0007 18.5387 19 18.384V5.616C19 5.462 18.936 5.32067 18.808 5.192C18.68 5.06333 18.5387 4.99933 18.384 5H11.981V4H18.385C18.845 4 19.229 4.15433 19.537 4.463C19.845 4.77167 19.9994 5.156 20 5.616V18.385C20 18.845 19.8457 19.2293 19.537 19.538C19.2284 19.8467 18.8444 20.0007 18.385 20H11.98ZM11.27 15.539L10.567 14.819L12.887 12.5H4.01904V11.5H12.887L10.567 9.18L11.269 8.462L14.808 12L11.27 15.539Z" fill="black"/>
    </symbol>
    <symbol id="line-right-top" viewBox="0 0 265 24" fill="none" xmlns="http://www.w3.org/2000/svg">
        <path d="M264.333 0.5L26.3306 0.500001L0.330694 23.4259" stroke="black" stroke-dasharray="2 2"/>
    </symbol>
    <symbol id="line-left-bottom" viewBox="0 0 186 33" fill="none" xmlns="http://www.w3.org/2000/svg">
        <path d="M0 0.5L164.5 0.500008L185.5 32" stroke="black" stroke-dasharray="2 2"/>
    </symbol>
    <symbol id="line-left-top" viewBox="0 0 260 33" fill="none" xmlns="http://www.w3.org/2000/svg">
        <path d="M0 0.5L238.002 0.500001L259.002 32.0001" stroke="black" stroke-dasharray="2 2"/>
    </symbol>
    <symbol id="line-right-bottom" viewBox="0 0 214 24" fill="none" xmlns="http://www.w3.org/2000/svg">
        <path d="M213.331 0.500031L26.3306 0.500008L0.330692 23.4259" stroke="black" stroke-dasharray="2 2"/>
    </symbol>
    <symbol id="icon-avoid" viewBox="0 0 5 29" fill="none" xmlns="http://www.w3.org/2000/svg">
        <path d="M2.2 21.32C1.88 21.32 1.61333 21.2133 1.4 21C1.21333 20.7866 1.10667 20.4666 1.08 20.04L0.279999 2.11998C0.253332 1.47998 0.399998 0.973313 0.719999 0.599979C1.06667 0.19998 1.56 -2.00272e-05 2.2 -2.00272e-05C2.81333 -2.00272e-05 3.28 0.19998 3.6 0.599979C3.92 0.973313 4.06667 1.47998 4.04 2.11998L3.24 20.04C3.24 20.4666 3.14667 20.7866 2.96 21C2.77333 21.2133 2.52 21.32 2.2 21.32ZM2.2 28.64C1.53333 28.64 0.999999 28.44 0.599999 28.04C0.199999 27.6133 -1.43051e-06 27.08 -1.43051e-06 26.44C-1.43051e-06 25.8 0.199999 25.28 0.599999 24.88C0.999999 24.4533 1.53333 24.24 2.2 24.24C2.86667 24.24 3.38667 24.4533 3.76 24.88C4.16 25.28 4.36 25.8 4.36 26.44C4.36 27.08 4.16 27.6133 3.76 28.04C3.38667 28.44 2.86667 28.64 2.2 28.64Z" fill="black"/>
    </symbol>
    <symbol id="icon-phone" viewBox="0 0 24 24" fill="none" xmlns="http://www.w3.org/2000/svg">
        <path d="M19.95 21C17.8667 21 15.8083 20.546 13.775 19.638C11.7417 18.73 9.89167 17.4423 8.225 15.775C6.55833 14.1077 5.271 12.2577 4.363 10.225C3.455 8.19233 3.00067 6.134 3 4.05C3 3.75 3.1 3.5 3.3 3.3C3.5 3.1 3.75 3 4.05 3H8.1C8.33333 3 8.54167 3.07933 8.725 3.238C8.90833 3.39667 9.01667 3.584 9.05 3.8L9.7 7.3C9.73333 7.56667 9.725 7.79167 9.675 7.975C9.625 8.15833 9.53333 8.31667 9.4 8.45L6.975 10.9C7.30833 11.5167 7.704 12.1123 8.162 12.687C8.62 13.2617 9.12433 13.816 9.675 14.35C10.1917 14.8667 10.7333 15.346 11.3 15.788C11.8667 16.23 12.4667 16.634 13.1 17L15.45 14.65C15.6 14.5 15.796 14.3877 16.038 14.313C16.28 14.2383 16.5173 14.2173 16.75 14.25L20.2 14.95C20.4333 15.0167 20.625 15.1377 20.775 15.313C20.925 15.4883 21 15.684 21 15.9V19.95C21 20.25 20.9 20.5 20.7 20.7C20.5 20.9 20.25 21 19.95 21ZM6.025 9L7.675 7.35L7.25 5H5.025C5.10833 5.68333 5.225 6.35833 5.375 7.025C5.525 7.69167 5.74167 8.35 6.025 9ZM14.975 17.95C15.625 18.2333 16.2877 18.4583 16.963 18.625C17.6383 18.7917 18.3173 18.9 19 18.95V16.75L16.65 16.275L14.975 17.95Z" fill="#3E3A39"/>
    </symbol>
    <symbol id="icon-email" viewBox="0 0 24 24" fill="none" xmlns="http://www.w3.org/2000/svg">
        <path d="M22 6C22 4.9 21.1 4 20 4H4C2.9 4 2 4.9 2 6V18C2 19.1 2.9 20 4 20H20C21.1 20 22 19.1 22 18V6ZM20 6L12 11L4 6H20ZM20 18H4V8L12 13L20 8V18Z" fill="#3E3A39"/>
    </symbol>
    <symbol id="icon-location" viewBox="0 0 24 24" fill="none" xmlns="http://www.w3.org/2000/svg">
        <path d="M12 11.5C11.337 11.5 10.7011 11.2366 10.2322 10.7678C9.76339 10.2989 9.5 9.66304 9.5 9C9.5 8.33696 9.76339 7.70107 10.2322 7.23223C10.7011 6.76339 11.337 6.5 12 6.5C12.663 6.5 13.2989 6.76339 13.7678 7.23223C14.2366 7.70107 14.5 8.33696 14.5 9C14.5 9.3283 14.4353 9.65339 14.3097 9.95671C14.1841 10.26 13.9999 10.5356 13.7678 10.7678C13.5356 10.9999 13.26 11.1841 12.9567 11.3097C12.6534 11.4353 12.3283 11.5 12 11.5ZM12 2C10.1435 2 8.36301 2.7375 7.05025 4.05025C5.7375 5.36301 5 7.14348 5 9C5 14.25 12 22 12 22C12 22 19 14.25 19 9C19 7.14348 18.2625 5.36301 16.9497 4.05025C15.637 2.7375 13.8565 2 12 2Z" fill="#3E3A39"/>
    </symbol>
    <symbol id="icon-account" viewBox="0 0 24 24" fill="none" xmlns="http://www.w3.org/2000/svg">
        <path d="M6.196 17.485C7.046 16.873 7.948 16.3893 8.902 16.034C9.85534 15.678 10.888 15.5 12 15.5C13.112 15.5 14.1447 15.678 15.098 16.034C16.0513 16.39 16.9533 16.8733 17.804 17.484C18.464 16.8007 18.995 15.994 19.397 15.064C19.799 14.1327 20 13.1113 20 12C20 9.78333 19.221 7.89567 17.663 6.337C16.105 4.77833 14.2173 3.99933 12 4C9.78267 4.00067 7.895 4.78 6.337 6.338C4.779 7.896 4 9.78333 4 12C4 13.1113 4.201 14.1327 4.603 15.064C5.005 15.9947 5.536 16.8013 6.196 17.484M9.868 11.632C9.28933 11.0533 9 10.3427 9 9.5C9 8.65733 9.28933 7.94667 9.868 7.368C10.4467 6.78933 11.1573 6.5 12 6.5C12.8427 6.5 13.5533 6.78933 14.132 7.368C14.7107 7.94667 15 8.65733 15 9.5C15 10.3427 14.7107 11.0533 14.132 11.632C13.5533 12.2107 12.8427 12.5 12 12.5C11.1573 12.5 10.4467 12.2107 9.868 11.632ZM12 21C10.7447 21 9.56967 20.7663 8.475 20.299C7.38034 19.8317 6.42767 19.193 5.617 18.383C4.80633 17.573 4.16767 16.6203 3.701 15.525C3.23433 14.4297 3.00067 13.2547 3 12C2.99933 10.7453 3.233 9.57033 3.701 8.475C4.169 7.37967 4.80767 6.427 5.617 5.617C6.42767 4.807 7.38034 4.16833 8.475 3.701C9.56967 3.23367 10.7447 3 12 3C13.2553 3 14.4303 3.23367 15.525 3.701C16.6197 4.16833 17.5723 4.807 18.383 5.617C19.1937 6.427 19.8323 7.37967 20.299 8.475C20.7657 9.57033 20.9993 10.7453 21 12C21.0007 13.2547 20.767 14.4297 20.299 15.525C19.831 16.6203 19.1923 17.573 18.383 18.383C17.5723 19.193 16.6197 19.8317 15.525 20.299C14.4303 20.7663 13.2553 21 12 21ZM14.721 19.516C15.613 19.194 16.384 18.7527 17.034 18.192C16.3847 17.67 15.633 17.2577 14.779 16.955C13.925 16.6523 12.9987 16.5007 12 16.5C11.0013 16.4993 10.0717 16.6477 9.211 16.945C8.35034 17.2423 7.60167 17.658 6.965 18.192C7.615 18.752 8.38634 19.1933 9.279 19.516C10.1717 19.8387 11.0787 20 12 20C12.9213 20 13.8283 19.8387 14.721 19.516ZM13.421 10.921C13.807 10.535 14 10.0613 14 9.5C14 8.93867 13.807 8.465 13.421 8.079C13.035 7.693 12.5613 7.5 12 7.5C11.4387 7.5 10.965 7.693 10.579 8.079C10.193 8.465 10 8.93867 10 9.5C10 10.0613 10.193 10.535 10.579 10.921C10.965 11.307 11.4387 11.5 12 11.5C12.5613 11.5 13.035 11.307 13.421 10.921Z" fill="#3E3A39"/>
    </symbol>
    <symbol id="icon-activity" viewBox="0 0 24 24" fill="none" xmlns="http://www.w3.org/2000/svg">
        <path d="M12.832 21.801C15.958 21.175 20 18.926 20 13.111C20 7.81999 16.127 4.29599 13.342 2.67699C12.723 2.31699 12 2.78999 12 3.50499V5.33299C12 6.77499 11.394 9.40699 9.71 10.502C8.85 11.061 7.92 10.224 7.816 9.20399L7.73 8.36599C7.63 7.39199 6.638 6.80099 5.86 7.39499C4.461 8.45999 3 10.33 3 13.11C3 20.221 8.289 22 10.933 22C11.0877 22 11.249 21.995 11.417 21.985C10.111 21.874 8 21.064 8 18.444C8 16.394 9.495 15.009 10.631 14.334C10.937 14.154 11.294 14.389 11.294 14.744V15.334C11.294 15.784 11.469 16.489 11.884 16.971C12.354 17.517 13.043 16.945 13.098 16.227C13.116 16.001 13.344 15.857 13.54 15.971C14.181 16.346 15 17.146 15 18.444C15 20.492 13.871 21.434 12.832 21.801Z" fill="#3E3A39"/>
    </symbol>
    <symbol id="icon-goal" viewBox="0 0 24 24" fill="none" xmlns="http://www.w3.org/2000/svg">
        <path d="M20.172 6.74999H18.311L13.745 11.314C13.9022 11.7148 13.9167 12.1575 13.7859 12.5677C13.6552 12.9779 13.3871 13.3306 13.0269 13.5664C12.6667 13.8022 12.2363 13.9068 11.808 13.8626C11.3798 13.8184 10.9798 13.6281 10.6753 13.3236C10.3709 13.0192 10.1806 12.6192 10.1364 12.1909C10.0922 11.7627 10.1968 11.3322 10.4326 10.972C10.6684 10.6118 11.0211 10.3438 11.4313 10.213C11.8415 10.0823 12.2842 10.0967 12.685 10.254L17.25 5.68899V3.82799C17.2501 3.57897 17.349 3.34016 17.525 3.16399L19.255 1.43399C19.287 1.40177 19.3272 1.37888 19.3712 1.36778C19.4153 1.35668 19.4615 1.35779 19.505 1.37099C19.594 1.39699 19.66 1.47099 19.678 1.56199L20.138 3.86299L22.438 4.32299C22.528 4.34099 22.602 4.40699 22.628 4.49599C22.6411 4.53922 22.6423 4.58521 22.6314 4.62905C22.6204 4.6729 22.5978 4.71296 22.566 4.74499L20.835 6.47499C20.6591 6.65075 20.4207 6.74963 20.172 6.74999Z" fill="#3E3A39"/>
        <path d="M2.625 12C2.625 14.4864 3.61272 16.871 5.37087 18.6291C7.12903 20.3873 9.5136 21.375 12 21.375C13.2311 21.375 14.4502 21.1325 15.5877 20.6614C16.7251 20.1902 17.7586 19.4997 18.6291 18.6291C19.4997 17.7586 20.1902 16.7251 20.6614 15.5877C21.1325 14.4502 21.375 13.2311 21.375 12C21.375 11.102 21.249 10.234 21.014 9.41301C20.9673 9.2245 20.9955 9.02522 21.0928 8.8571C21.19 8.68899 21.3487 8.56515 21.5353 8.51164C21.722 8.45813 21.9222 8.47913 22.0937 8.57021C22.2653 8.6613 22.3948 8.81537 22.455 9.00001C22.729 9.95401 22.875 10.96 22.875 12C22.875 18.006 18.006 22.875 12 22.875C5.994 22.875 1.125 18.006 1.125 12C1.125 5.99401 5.994 1.12501 12 1.12501C13.015 1.12401 14.024 1.26501 15 1.54401C15.0952 1.5707 15.1841 1.61594 15.2617 1.67713C15.3393 1.73831 15.4041 1.81423 15.4523 1.90053C15.5005 1.98683 15.5311 2.0818 15.5425 2.17998C15.5538 2.27816 15.5457 2.37762 15.5184 2.47264C15.4912 2.56765 15.4455 2.65635 15.3839 2.73364C15.3223 2.81092 15.246 2.87527 15.1595 2.92297C15.0729 2.97068 14.9778 3.00081 14.8795 3.01163C14.7813 3.02244 14.6819 3.01374 14.587 2.98601C13.7457 2.74586 12.8749 2.62436 12 2.62501C9.5136 2.62501 7.12903 3.61273 5.37087 5.37088C3.61272 7.12903 2.625 9.5136 2.625 12Z" fill="#3E3A39"/>
        <path d="M7.12499 12C7.12778 12.6623 7.26553 13.3171 7.52983 13.9244C7.79414 14.5318 8.17945 15.0788 8.66223 15.5322C9.14502 15.9857 9.71516 16.3359 10.3378 16.5617C10.9605 16.7874 11.6227 16.8838 12.2839 16.8451C12.9451 16.8064 13.5914 16.6333 14.1835 16.3365C14.7756 16.0396 15.3009 15.6252 15.7275 15.1185C16.1541 14.6118 16.4729 14.0235 16.6645 13.3895C16.8561 12.7555 16.9165 12.0891 16.842 11.431C16.821 11.2977 16.8364 11.1612 16.8867 11.036C16.9369 10.9108 17.0201 10.8015 17.1274 10.7197C17.2348 10.6379 17.3622 10.5867 17.4963 10.5714C17.6303 10.5561 17.766 10.5774 17.889 10.633C18.14 10.745 18.309 10.984 18.331 11.258C18.4863 12.5733 18.2279 13.9042 17.5919 15.0658C16.9558 16.2275 15.9737 17.1621 14.782 17.7399C13.5902 18.3176 12.2481 18.5097 10.9422 18.2894C9.63624 18.0692 8.43135 17.4476 7.49499 16.511C6.55888 15.5754 5.93711 14.3717 5.71591 13.0669C5.49471 11.762 5.68504 10.4207 6.26051 9.22885C6.83598 8.03703 7.76805 7.05382 8.92747 6.41559C10.0869 5.77736 11.4162 5.51573 12.731 5.667C12.8304 5.67623 12.9269 5.7052 13.015 5.75222C13.103 5.79924 13.1808 5.86337 13.2438 5.94084C13.3067 6.01831 13.3536 6.10757 13.3816 6.20338C13.4096 6.2992 13.4182 6.39964 13.4069 6.49882C13.3955 6.59799 13.3645 6.69392 13.3157 6.78096C13.2668 6.868 13.2011 6.94441 13.1223 7.00571C13.0435 7.06702 12.9533 7.11197 12.8569 7.13795C12.7605 7.16393 12.6599 7.17041 12.561 7.157C11.878 7.07804 11.1861 7.14441 10.5306 7.35174C9.87504 7.55907 9.27078 7.90269 8.75743 8.36003C8.24409 8.81738 7.83327 9.37811 7.55193 10.0054C7.27059 10.6328 7.12509 11.3125 7.12499 12Z" fill="#3E3A39"/>
    </symbol>
    <symbol id="icon-progress" viewBox="0 0 24 24" fill="none" xmlns="http://www.w3.org/2000/svg">
        <path d="M1 1H23M5 1V6C5 9 10 9.235 10 12C10 14.765 5 15 5 18V23M19 1V6C19 9 14 9.235 14 12C14 14.765 19 15 19 18V23M1 23H23M10 4.5H14V6C14 7 12 8 12 8C12 8 10 7 10 6V4.5ZM8 21C8 19 12 17 12 17C12 17 16 19 16 21V23H8V21Z" stroke="#3E3A39" stroke-width="2"/>
    </symbol>

</svg>