<svg>
    <symbol id="icon-login" viewBox="0 0 24 24" fill="none" xmlns="http://www.w3.org/2000/svg">
        <path d="M11.98 20V19H18.385C18.5384 19 18.6794 18.936 18.808 18.808C18.9367 18.68 19.0007 18.5387 19 18.384V5.616C19 5.462 18.936 5.32067 18.808 5.192C18.68 5.06333 18.5387 4.99933 18.384 5H11.981V4H18.385C18.845 4 19.229 4.15433 19.537 4.463C19.845 4.77167 19.9994 5.156 20 5.616V18.385C20 18.845 19.8457 19.2293 19.537 19.538C19.2284 19.8467 18.8444 20.0007 18.385 20H11.98ZM11.27 15.539L10.567 14.819L12.887 12.5H4.01904V11.5H12.887L10.567 9.18L11.269 8.462L14.808 12L11.27 15.539Z" fill="black"/>
    </symbol>
    <symbol id="line-right-top" viewBox="0 0 265 24" fill="none" xmlns="http://www.w3.org/2000/svg">
        <path d="M264.333 0.5L26.3306 0.500001L0.330694 23.4259" stroke="black" stroke-dasharray="2 2"/>
    </symbol>
    <symbol id="line-left-bottom" viewBox="0 0 186 33" fill="none" xmlns="http://www.w3.org/2000/svg">
        <path d="M0 0.5L164.5 0.500008L185.5 32" stroke="black" stroke-dasharray="2 2"/>
    </symbol>
    <symbol id="line-left-top" viewBox="0 0 260 33" fill="none" xmlns="http://www.w3.org/2000/svg">
        <path d="M0 0.5L238.002 0.500001L259.002 32.0001" stroke="black" stroke-dasharray="2 2"/>
    </symbol>
    <symbol id="line-right-bottom" viewBox="0 0 214 24" fill="none" xmlns="http://www.w3.org/2000/svg">
        <path d="M213.331 0.500031L26.3306 0.500008L0.330692 23.4259" stroke="black" stroke-dasharray="2 2"/>
    </symbol>
    <symbol id="icon-avoid" viewBox="0 0 5 29" fill="none" xmlns="http://www.w3.org/2000/svg">
        <path d="M2.2 21.32C1.88 21.32 1.61333 21.2133 1.4 21C1.21333 20.7866 1.10667 20.4666 1.08 20.04L0.279999 2.11998C0.253332 1.47998 0.399998 0.973313 0.719999 0.599979C1.06667 0.19998 1.56 -2.00272e-05 2.2 -2.00272e-05C2.81333 -2.00272e-05 3.28 0.19998 3.6 0.599979C3.92 0.973313 4.06667 1.47998 4.04 2.11998L3.24 20.04C3.24 20.4666 3.14667 20.7866 2.96 21C2.77333 21.2133 2.52 21.32 2.2 21.32ZM2.2 28.64C1.53333 28.64 0.999999 28.44 0.599999 28.04C0.199999 27.6133 -1.43051e-06 27.08 -1.43051e-06 26.44C-1.43051e-06 25.8 0.199999 25.28 0.599999 24.88C0.999999 24.4533 1.53333 24.24 2.2 24.24C2.86667 24.24 3.38667 24.4533 3.76 24.88C4.16 25.28 4.36 25.8 4.36 26.44C4.36 27.08 4.16 27.6133 3.76 28.04C3.38667 28.44 2.86667 28.64 2.2 28.64Z" fill="black"/>
    </symbol>
    <symbol id="icon-phone" viewBox="0 0 24 24" fill="none" xmlns="http://www.w3.org/2000/svg">
        <path d="M19.95 21C17.8667 21 15.8083 20.546 13.775 19.638C11.7417 18.73 9.89167 17.4423 8.225 15.775C6.55833 14.1077 5.271 12.2577 4.363 10.225C3.455 8.19233 3.00067 6.134 3 4.05C3 3.75 3.1 3.5 3.3 3.3C3.5 3.1 3.75 3 4.05 3H8.1C8.33333 3 8.54167 3.07933 8.725 3.238C8.90833 3.39667 9.01667 3.584 9.05 3.8L9.7 7.3C9.73333 7.56667 9.725 7.79167 9.675 7.975C9.625 8.15833 9.53333 8.31667 9.4 8.45L6.975 10.9C7.30833 11.5167 7.704 12.1123 8.162 12.687C8.62 13.2617 9.12433 13.816 9.675 14.35C10.1917 14.8667 10.7333 15.346 11.3 15.788C11.8667 16.23 12.4667 16.634 13.1 17L15.45 14.65C15.6 14.5 15.796 14.3877 16.038 14.313C16.28 14.2383 16.5173 14.2173 16.75 14.25L20.2 14.95C20.4333 15.0167 20.625 15.1377 20.775 15.313C20.925 15.4883 21 15.684 21 15.9V19.95C21 20.25 20.9 20.5 20.7 20.7C20.5 20.9 20.25 21 19.95 21ZM6.025 9L7.675 7.35L7.25 5H5.025C5.10833 5.68333 5.225 6.35833 5.375 7.025C5.525 7.69167 5.74167 8.35 6.025 9ZM14.975 17.95C15.625 18.2333 16.2877 18.4583 16.963 18.625C17.6383 18.7917 18.3173 18.9 19 18.95V16.75L16.65 16.275L14.975 17.95Z" fill="#3E3A39"/>
    </symbol>
    <symbol id="icon-email" viewBox="0 0 24 24" fill="none" xmlns="http://www.w3.org/2000/svg">
        <path d="M22 6C22 4.9 21.1 4 20 4H4C2.9 4 2 4.9 2 6V18C2 19.1 2.9 20 4 20H20C21.1 20 22 19.1 22 18V6ZM20 6L12 11L4 6H20ZM20 18H4V8L12 13L20 8V18Z" fill="#3E3A39"/>
    </symbol>
    <symbol id="icon-location" viewBox="0 0 24 24" fill="none" xmlns="http://www.w3.org/2000/svg">
        <path d="M12 11.5C11.337 11.5 10.7011 11.2366 10.2322 10.7678C9.76339 10.2989 9.5 9.66304 9.5 9C9.5 8.33696 9.76339 7.70107 10.2322 7.23223C10.7011 6.76339 11.337 6.5 12 6.5C12.663 6.5 13.2989 6.76339 13.7678 7.23223C14.2366 7.70107 14.5 8.33696 14.5 9C14.5 9.3283 14.4353 9.65339 14.3097 9.95671C14.1841 10.26 13.9999 10.5356 13.7678 10.7678C13.5356 10.9999 13.26 11.1841 12.9567 11.3097C12.6534 11.4353 12.3283 11.5 12 11.5ZM12 2C10.1435 2 8.36301 2.7375 7.05025 4.05025C5.7375 5.36301 5 7.14348 5 9C5 14.25 12 22 12 22C12 22 19 14.25 19 9C19 7.14348 18.2625 5.36301 16.9497 4.05025C15.637 2.7375 13.8565 2 12 2Z" fill="#3E3A39"/>
    </symbol>

</svg>